<?xml version="1.0" encoding="UTF-8"?>
<svg width="32" height="32" viewBox="0 0 32 32" fill="none" xmlns="http://www.w3.org/2000/svg">
    <!-- Background Circle -->
    <circle cx="16" cy="16" r="15" fill="url(#gradient)" stroke="url(#gradient)" stroke-width="2"/>
    
    <!-- Abstract Shape -->
    <path d="M16 8C11.5817 8 8 11.5817 8 16C8 20.4183 11.5817 24 16 24C20.4183 24 24 20.4183 24 16C24 11.5817 20.4183 8 16 8ZM16 22C12.6863 22 10 19.3137 10 16C10 12.6863 12.6863 10 16 10C19.3137 10 22 12.6863 22 16C22 19.3137 19.3137 22 16 22Z" fill="white"/>
    
    <!-- Center Dot -->
    <circle cx="16" cy="16" r="3" fill="white"/>
    
    <!-- Gradient Definition -->
    <defs>
        <linearGradient id="gradient" x1="0" y1="0" x2="32" y2="32" gradientUnits="userSpaceOnUse">
            <stop offset="0%" stop-color="#8B5CF6"/>
            <stop offset="100%" stop-color="#EC4899"/>
        </linearGradient>
    </defs>
</svg> 